# xmcd
#
# Track frame offsets:
#	150
#	24085
#	40162
#	58025
#	79935
#	95500
#	115742
#	135250
#	153260
#	173980
#	191650
#	206867
#	221325
#	237747
#	260270
#	278787
#	296920
#	317222
#
# Disc length: 4453 seconds
#
# Revision: 1
# Processed by: cddbd v1.5PL3 Copyright (c) Steve Scherf et al.
# Submitted via: CDex 1.50Beta5
#
DISCID=06116312
DTITLE=Various Artist - Monster Hits!
DYEAR=1900
DGENRE=
TTITLE0=Madonna/Ray Of Light
TTITLE1=TLC/No Scubs
TTITLE2=Cher/Believe
TTITLE3=Blondie/Maria
TTITLE4=Sixpence None THE Richer/Kiss Me
TTITLE5=The Brand New Heavies/Saturday Nite
TTITLE6=Eric Benet/Georgy Porgy(Featuring Faith Evans)
TTITLE7=Brandy And Monica/The Boy Is Mine
TTITLE8=Faith Evans/Love Like This
TTITLE9=Monica/The First Night
TTITLE10=Shanice/When I Close My Eyes
TTITLE11=Sweetbox/Everything's Gonna Br Alright
TTITLE12=Sugar Ray/Every Morning
TTITLE13=Owsley/Oh No The Radio
TTITLE14=Cibo Matto/Spoon
TTITLE15=Whitney Houston/I Belive In You And Me
TTITLE16=Sarah McLachlan/Angel
TTITLE17=Mr. Big/Superfantastic
EXTD=
EXTT0=
EXTT1=
EXTT2=
EXTT3=
EXTT4=
EXTT5=
EXTT6=
EXTT7=
EXTT8=
EXTT9=
EXTT10=
EXTT11=
EXTT12=
EXTT13=
EXTT14=
EXTT15=
EXTT16=
EXTT17=
PLAYORDER=
